<svg width="498" height="98" viewBox="0 0 498 98" fill="none" xmlns="http://www.w3.org/2000/svg">
<g clip-path="url(#clip0_2_5)">
<path d="M16.72 80V27.36H3.2V21.6H36.8V27.36H23.28V80H16.72ZM79.12 53.12C79.12 50.5067 78.8533 48.48 78.32 47.04C77.7867 45.6 76.8533 44.6133 75.52 44.08C74.24 43.4933 72.3733 43.2 69.92 43.2C68.6933 43.2 67.5467 43.28 66.48 43.44C65.4667 43.5467 64.4267 43.7867 63.36 44.16C62.3467 44.48 61.2 44.96 59.92 45.6L58.64 40C60.4533 39.0933 62.2667 38.48 64.08 38.16C65.9467 37.7867 68.1333 37.6 70.64 37.6C74.4267 37.6 77.3867 38.0533 79.52 38.96C81.6533 39.8667 83.1467 41.44 84 43.68C84.9067 45.8667 85.36 48.9067 85.36 52.8V80H79.12V53.12ZM55.44 80V21.6H61.68V80H55.44ZM110.88 42C113.493 41.0933 116.293 40.32 119.28 39.68C122.32 39.04 125.307 38.5333 128.24 38.16C131.227 37.7867 133.973 37.6 136.48 37.6V43.2C134.293 43.2 131.973 43.36 129.52 43.68C127.067 43.9467 124.64 44.3467 122.24 44.88C119.84 45.4133 117.653 46.0533 115.68 46.8L117.28 43.76V80H110.88V42ZM174.08 80.8C167.84 80.8 163.2 79.1733 160.16 75.92C157.12 72.6133 155.6 67.5733 155.6 60.8V57.6C155.6 50.72 156.853 45.68 159.36 42.48C161.92 39.2267 165.867 37.6 171.2 37.6C176.587 37.6 180.533 39.2267 183.04 42.48C185.547 45.68 186.8 50.72 186.8 57.6V61.92H158.72V56.72H182L180.56 58.56V57.84C180.56 52.6133 179.813 48.8533 178.32 46.56C176.88 44.2133 174.507 43.04 171.2 43.04C167.893 43.04 165.493 44.2133 164 46.56C162.56 48.8533 161.84 52.6133 161.84 57.84V60.56C161.84 64.24 162.24 67.1733 163.04 69.36C163.84 71.4933 165.173 73.04 167.04 74C168.907 74.9067 171.413 75.36 174.56 75.36C176.107 75.36 177.68 75.2533 179.28 75.04C180.933 74.8267 182.693 74.48 184.56 74V79.52C182.96 79.8933 181.227 80.1867 179.36 80.4C177.547 80.6667 175.787 80.8 174.08 80.8ZM222.48 80.8C217.147 80.8 212.96 79.6 209.92 77.2C206.88 74.7467 205.36 71.4133 205.36 67.2C205.36 62.7733 207.04 59.44 210.4 57.2C213.813 54.96 218.827 53.84 225.44 53.84H232.64V59.04H225.52C220.88 59.04 217.413 59.7067 215.12 61.04C212.88 62.3733 211.76 64.4 211.76 67.12C211.76 69.68 212.693 71.7067 214.56 73.2C216.427 74.6933 218.987 75.44 222.24 75.44C223.947 75.44 225.6 75.2267 227.2 74.8C228.853 74.3733 230.24 73.8133 231.36 73.12L229.6 76.8V52.96C229.6 50.24 229.387 48.16 228.96 46.72C228.533 45.28 227.68 44.32 226.4 43.84C225.173 43.3067 223.36 43.04 220.96 43.04C219.413 43.04 217.92 43.12 216.48 43.28C215.04 43.44 213.6 43.7067 212.16 44.08C210.72 44.4 209.2 44.8533 207.6 45.44V39.92C209.467 39.1733 211.6 38.6133 214 38.24C216.453 37.8133 218.987 37.6 221.6 37.6C225.227 37.6 228.08 38.0533 230.16 38.96C232.24 39.8667 233.707 41.44 234.56 43.68C235.413 45.8667 235.84 48.9067 235.84 52.8V78.24C234.187 79.04 232.133 79.6533 229.68 80.08C227.227 80.56 224.827 80.8 222.48 80.8ZM273.12 80.8C268.96 80.8 265.6 80.08 263.04 78.64C260.533 77.1467 258.693 74.7467 257.52 71.44C256.4 68.1333 255.84 63.7867 255.84 58.4C255.84 53.28 256.32 49.2 257.28 46.16C258.24 43.12 259.813 40.9333 262 39.6C264.187 38.2667 267.093 37.6 270.72 37.6C273.013 37.6 275.2 37.84 277.28 38.32C279.413 38.8 281.36 39.5467 283.12 40.56L281.12 45.84C279.467 44.9333 277.813 44.2667 276.16 43.84C274.56 43.4133 272.907 43.2 271.2 43.2C268.907 43.2 267.093 43.68 265.76 44.64C264.427 45.5467 263.467 47.12 262.88 49.36C262.347 51.5467 262.08 54.5867 262.08 58.48C262.08 62.64 262.4 65.9467 263.04 68.4C263.68 70.8533 264.747 72.6133 266.24 73.68C267.787 74.6933 269.867 75.2 272.48 75.2C274.187 75.2 275.787 75.0133 277.28 74.64C278.827 74.2133 280.213 73.6267 281.44 72.88L280 76.32V21.6H286.24V78.24C284.587 78.9867 282.64 79.6 280.4 80.08C278.16 80.56 275.733 80.8 273.12 80.8ZM320.32 80.8C318.24 80.8 316.16 80.6133 314.08 80.24C312.053 79.92 310.027 79.4133 308 78.72V72.56C309.973 73.36 311.92 73.9733 313.84 74.4C315.76 74.8267 317.733 75.04 319.76 75.04C323.387 75.04 326.187 74.2933 328.16 72.8C330.187 71.3067 331.2 68.9333 331.2 65.68C331.2 63.9733 330.853 62.4533 330.16 61.12C329.52 59.7333 328.4 58.4 326.8 57.12C325.253 55.84 323.067 54.4267 320.24 52.88C316.773 50.9067 314.027 49.0667 312 47.36C310.027 45.6533 308.613 43.84 307.76 41.92C306.96 39.9467 306.56 37.7067 306.56 35.2C306.56 30.24 308 26.6133 310.88 24.32C313.813 21.9733 318.4 20.8 324.64 20.8C326.507 20.8 328.373 20.9067 330.24 21.12C332.16 21.3333 334.16 21.68 336.24 22.16V39.2H329.84V24.64L332.4 27.52C330.96 27.2 329.6 26.96 328.32 26.8C327.093 26.64 325.813 26.56 324.48 26.56C320.64 26.56 317.787 27.28 315.92 28.72C314.053 30.1067 313.12 32.2933 313.12 35.28C313.12 36.9333 313.44 38.4533 314.08 39.84C314.773 41.1733 315.92 42.5067 317.52 43.84C319.173 45.12 321.387 46.5333 324.16 48.08C327.573 50 330.267 51.84 332.24 53.6C334.213 55.3067 335.627 57.1467 336.48 59.12C337.333 61.04 337.76 63.28 337.76 65.84C337.76 70.8533 336.293 74.6133 333.36 77.12C330.48 79.5733 326.133 80.8 320.32 80.8ZM373.68 80.8C368.347 80.8 364.16 79.6 361.12 77.2C358.08 74.7467 356.56 71.4133 356.56 67.2C356.56 62.7733 358.24 59.44 361.6 57.2C365.013 54.96 370.027 53.84 376.64 53.84H383.84V59.04H376.72C372.08 59.04 368.613 59.7067 366.32 61.04C364.08 62.3733 362.96 64.4 362.96 67.12C362.96 69.68 363.893 71.7067 365.76 73.2C367.627 74.6933 370.187 75.44 373.44 75.44C375.147 75.44 376.8 75.2267 378.4 74.8C380.053 74.3733 381.44 73.8133 382.56 73.12L380.8 76.8V52.96C380.8 50.24 380.587 48.16 380.16 46.72C379.733 45.28 378.88 44.32 377.6 43.84C376.373 43.3067 374.56 43.04 372.16 43.04C370.613 43.04 369.12 43.12 367.68 43.28C366.24 43.44 364.8 43.7067 363.36 44.08C361.92 44.4 360.4 44.8533 358.8 45.44V39.92C360.667 39.1733 362.8 38.6133 365.2 38.24C367.653 37.8133 370.187 37.6 372.8 37.6C376.427 37.6 379.28 38.0533 381.36 38.96C383.44 39.8667 384.907 41.44 385.76 43.68C386.613 45.8667 387.04 48.9067 387.04 52.8V78.24C385.387 79.04 383.333 79.6533 380.88 80.08C378.427 80.56 376.027 80.8 373.68 80.8ZM418.08 80V45.6H406V40H418.08V32.24C418.08 27.6 419.2 24.1333 421.44 21.84C423.68 19.5467 427.067 18.4 431.6 18.4C432.987 18.4 434.427 18.5067 435.92 18.72C437.413 18.9333 438.907 19.2533 440.4 19.68V25.36C438.907 24.8267 437.493 24.48 436.16 24.32C434.827 24.1067 433.627 24 432.56 24C429.733 24 427.68 24.6667 426.4 26C425.12 27.28 424.48 29.44 424.48 32.48V40H440.4V45.6H424.48V80H418.08ZM476.48 80.8C470.24 80.8 465.6 79.1733 462.56 75.92C459.52 72.6133 458 67.5733 458 60.8V57.6C458 50.72 459.253 45.68 461.76 42.48C464.32 39.2267 468.267 37.6 473.6 37.6C478.987 37.6 482.933 39.2267 485.44 42.48C487.947 45.68 489.2 50.72 489.2 57.6V61.92H461.12V56.72H484.4L482.96 58.56V57.84C482.96 52.6133 482.213 48.8533 480.72 46.56C479.28 44.2133 476.907 43.04 473.6 43.04C470.293 43.04 467.893 44.2133 466.4 46.56C464.96 48.8533 464.24 52.6133 464.24 57.84V60.56C464.24 64.24 464.64 67.1733 465.44 69.36C466.24 71.4933 467.573 73.04 469.44 74C471.307 74.9067 473.813 75.36 476.96 75.36C478.507 75.36 480.08 75.2533 481.68 75.04C483.333 74.8267 485.093 74.48 486.96 74V79.52C485.36 79.8933 483.627 80.1867 481.76 80.4C479.947 80.6667 478.187 80.8 476.48 80.8Z" fill="white"/>
</g>
<defs>
<clipPath id="clip0_2_5">
<rect width="498" height="98" fill="white"/>
</clipPath>
</defs>
</svg>
